<?xml version="1.0" encoding="utf-8"?>
<svg version="1.1" id="Capa_1" xmlns="http://www.w3.org/2000/svg" xmlns:xlink="http://www.w3.org/1999/xlink" x="0px" y="0px"
	 viewBox="0 0 128 112.8" style="enable-background:new 0 0 128 112.8;" xml:space="preserve">
<style type="text/css">
	.st0{fill:#FFFFFF;}
	.st1{fill:#108498;}
	.st2{fill:#27CFD5;}
</style>
<g>
	<path class="st0" d="M104.1,28.3l0.4-3.2L98,9.5L87.8,4.2H73.2L65.1,11L42.2,4.2L23.5,8.9l-7,18l7.3,18l2.2,23.2v29.4l5.6,10.4h7.8
		l6-10.2l9.4-27.4l7.6-1.8l6,7.8l9.1,22.9l6,7l5.2,1.6L94.3,97l2.9-16.2V72l0.5-2.9c10.7-1.2,19-10.3,19-21.3
		C116.6,39.2,111.5,31.7,104.1,28.3z"/>
	<g>
		<g>
			<path class="st1" d="M34.9,11.1c-2.2,0.3-4.3,1.4-5.9,3c-2,2-3.1,4.7-3.1,7.5c0,1,0.6,2,1.5,2.4c0.4,0.3,0.9,0.4,1.4,0.4
				c0.7,0,1.3-0.2,1.8-0.6c0.7-0.6,1.1-1.5,1.1-2.5c0.1-2.3,2.1-4.4,4.4-4.4c1.1,0,2.2-0.5,2.7-1.3c0.9-1.2,0.5-3.1-0.7-3.9
				C37.2,10.8,35.9,11,34.9,11.1l0.1,0.4L34.9,11.1L34.9,11.1z"/>
			<path class="st1" d="M101.5,8.4c-4.3-4.7-10.6-7.6-17.6-7.9h-1.6c-5.6,0.3-11.1,2-15.8,5c-1.9,1.2-3.8,2-5.8,2.3
				c-1.9-0.3-3.9-1.1-5.8-2.3c-4.6-3-10.1-4.7-15.8-5h-1.6c-6.9,0.3-13.3,3.3-17.6,8c-3.8,4.1-6,10-6.1,16.1
				c-0.2,5.1,1.1,10.4,3.6,14.7c0.4,0.7,0.9,1.4,1.4,2.1c0.4,0.6,0.8,1.2,1.2,1.8c1.8,3,2.8,6.4,2.9,9.8c0.2,5.5-0.2,10.9-1,16.2
				c-1.3,8.2-1.1,16.4,0.6,24.4c1,4.8,2.3,8.5,4.1,11.7c1.7,2.9,3.5,4.9,5.7,6c1.2,0.6,2.5,1,4.1,1.1h1h0.2c0.9-0.2,1.9-0.4,2.8-1
				c2.2-1.3,3.6-3.5,4.7-5.5c1.8-3.6,3.1-7.5,4.1-10.9c0.4-1.3,0.8-2.6,1.2-3.9c1.1-3.6,2.2-7.3,3.5-10.9c0.9-2.1,1.8-4.3,3.3-6.2
				c0.7-0.9,1.9-2,3.3-2l0,0c1.4,0,2.6,1.1,3.3,2.1c1.8,2.3,2.9,5.1,3.9,7.7c1.1,3.1,2.1,6.3,3,9.5c0.7,2.3,1.4,4.7,2.2,7.1
				c1.3,3.8,2.6,7.2,4.8,10.2c1.6,2.1,3.7,3.5,5.9,3.8h0.1h1.1c2-0.1,4-0.9,5.6-2.1c2.1-1.6,3.7-3.9,5.3-7.2
				c1.6-3.5,2.7-7.6,3.6-12.8c0.9-6.1,1.1-12.3,0.3-18.6c-0.1-0.9-0.2-1.7-0.3-2.4l-5.7,0.4c0,0.1,0,0.1,0,0.2c0.8,5,1,10.1,0.6,15
				c-0.5,5.9-1.6,10.8-3.3,15c-1,2.3-2.2,4.6-4.2,6c-1,0.7-2.4,1.1-3.3,0.4c-1.3-1-2.2-2.7-2.9-4.1c-1.6-3.4-2.7-7.1-3.7-10.7
				l-1-3.5c-1.4-4.6-2.8-9.3-5-13.7c-1.1-2.1-2.7-4.8-5.3-6.5c-2.8-1.9-6.6-1.9-9.4-0.2c-3.1,1.9-4.9,5.1-6.4,8.4
				c-1.9,4.4-3.3,9-4.6,13.5c-1.1,3.7-2.2,7.5-3.6,11.1c-0.7,1.7-1.5,3.5-2.8,5c-0.4,0.4-1.1,1.2-2,1.1c-1.8-0.1-3.1-1.4-4-2.6
				c-1.9-2.6-3-5.7-3.8-8.5c-1.8-6.7-2.4-13.8-1.8-21.1c0.1-1.6,0.4-3.2,0.6-4.8c0.2-1.4,0.4-2.9,0.5-4.4c0.4-3.9,0.6-7.9,0.5-12.4
				c-0.2-5.2-2-10.5-5.2-14.8c-2.9-4-4.3-8.9-4-13.9C19.6,20,21,16,23.3,13.1c2.6-3.3,6.4-5.6,10.9-6.6c5.7-1.2,11,0.4,14.5,2
				c0.9,0.4,1.7,0.9,2.6,1.4c0.6,0.4,1.3,0.8,1.9,1.1c1.2,0.7,2.4,1.3,3.7,2c1.8,1,3.8,2.1,5.7,3.1c2.4,1.1,5.1,2.4,8,2.8
				c1.6,0.3,2.8-0.2,3.4-1.1c0.6-0.8,0.7-1.8,0.3-2.7c-0.4-0.9-1.1-1.6-2.1-1.7c-2-0.2-3.9-0.8-5.6-1.6c1.4-0.7,2.6-1.3,3.7-2
				c3.8-2.2,8.1-3.5,12.5-3.6c5,0,9.8,1.8,13.3,4.9c2.6,2.4,4.5,5.7,5.3,9.3c0.4,1.9,0.6,3.8,0.5,5.7l5.6,2.3
				c0.1-1.2,0.2-2.3,0.1-3.5C107.6,18.6,105.4,12.6,101.5,8.4z"/>
		</g>
		<g>
			<path class="st2" d="M118.5,39.8c-1.8-5.3-5.5-9.9-10.2-12.8c-4.5-2.8-9.9-4.1-15.2-3.6c-6.3,0.6-12.2,3.7-16.3,8.5
				C73,36.2,70.9,42,71,47.8c0,5.8,2.2,11.6,6.1,16c3.7,4.3,9,7.2,14.6,8c5.1,0.8,10.4-0.1,15-2.5c5.3-2.7,9.5-7.5,11.6-13
				C120.2,51.1,120.3,45.1,118.5,39.8z M112.7,52.8c-1.2,4.2-4.1,8-7.8,10.3c-3.5,2.1-7.7,3.1-11.7,2.6c-3.8-0.5-7.5-2.2-10.3-4.9
				s-4.7-6.3-5.3-10.1c-0.7-4.4,0.3-9.1,2.7-12.8c2.7-4.2,7.2-7.1,12.1-7.9c3.7-0.6,7.6-0.1,10.9,1.5c4,1.9,7.2,5.3,8.9,9.4
				C113.7,44.6,113.9,48.9,112.7,52.8z"/>
			<path class="st2" d="M104.9,44.5c-2.1,0-4.2,0-6.3,0c0-2.1,0-4.2,0-6.2c0-1.7-1.5-3.2-3.2-3.2c-1.6,0-3.1,1.4-3.2,3
				c0,2.1,0,4.3,0,6.4c-2.1,0-4.2,0-6.3,0c-1.6,0-3.1,1.5-3.1,3.1c-0.1,1.7,1.4,3.2,3.1,3.2c2.1,0,4.2,0,6.3,0c0,2.1,0,4.2,0,6.3
				c0,1.7,1.5,3.2,3.2,3.1c1.7,0,3.2-1.5,3.2-3.1c0-2.1,0-4.2,0-6.3c2.1,0,4.2,0,6.3,0c1.6,0,3-1.4,3.1-3
				C108.1,46.1,106.6,44.5,104.9,44.5z"/>
		</g>
	</g>
</g>
</svg>
